<?xml version="1.0" encoding="UTF-8" standalone="no"?>
<!DOCTYPE svg PUBLIC "-//W3C//DTD SVG 1.1//EN" "http://www.w3.org/Graphics/SVG/1.1/DTD/svg11.dtd">
<svg viewBox="52.598 175.052 381.841 79.4" width="381.841" height="79.4" xmlns="http://www.w3.org/2000/svg" xmlns:xlink="http://www.w3.org/1999/xlink">
  <path d="M 302.358 175.052 L 370.986 175.052 L 370.986 187.719 L 343.762 187.719 L 343.762 254.358 L 330.149 254.358 L 330.149 187.719 L 302.358 187.719 L 302.358 175.052 Z" fill="var(--geist-foreground)"></path>
  <path d="M 189.491 175.052 L 189.491 187.719 L 134.481 187.719 L 134.481 208.096 L 178.72 208.096 L 178.72 220.763 L 134.481 220.763 L 134.481 241.691 L 189.491 241.691 L 189.491 254.358 L 120.869 254.358 L 120.869 187.719 L 120.863 187.719 L 120.863 175.052 L 189.491 175.052 Z" fill="var(--geist-foreground)"></path>
  <path d="M 223.759 175.085 L 205.945 175.085 L 269.751 254.391 L 287.617 254.391 L 255.71 214.766 L 287.566 175.146 L 269.751 175.173 L 246.791 203.689 L 223.759 175.085 Z" fill="var(--geist-foreground)"></path>
  <path d="M 242.039 231.734 L 233.118 220.642 L 205.894 254.452 L 223.759 254.452 L 242.039 231.734 Z" fill="var(--geist-foreground)"></path>
  <path d="M 374.046 253.874 C 373.049 253.874 372.201 253.528 371.491 252.838 C 370.781 252.147 370.43 251.311 370.439 250.32 C 370.43 249.357 370.781 248.53 371.491 247.839 C 372.201 247.148 373.049 246.803 374.046 246.803 C 375.005 246.803 375.844 247.148 376.554 247.839 C 377.274 248.53 377.633 249.357 377.643 250.32 C 377.633 250.975 377.467 251.574 377.135 252.111 C 376.794 252.656 376.361 253.083 375.816 253.392 C 375.281 253.71 374.691 253.874 374.046 253.874 Z" fill="var(--geist-foreground)"></path>
  <path d="M 397.279 220.464 L 403.311 220.464 L 403.311 243.704 C 403.302 245.84 402.84 247.666 401.937 249.202 C 401.024 250.738 399.76 251.911 398.137 252.738 C 396.523 253.556 394.632 253.974 392.483 253.974 C 390.518 253.974 388.757 253.619 387.189 252.929 C 385.621 252.238 384.376 251.202 383.463 249.838 C 382.54 248.475 382.088 246.776 382.088 244.74 L 388.13 244.74 C 388.139 245.631 388.342 246.403 388.729 247.048 C 389.116 247.694 389.651 248.184 390.334 248.53 C 391.025 248.875 391.819 249.048 392.713 249.048 C 393.682 249.048 394.512 248.848 395.185 248.439 C 395.858 248.039 396.375 247.439 396.735 246.639 C 397.085 245.849 397.27 244.867 397.279 243.704 L 397.279 220.464 Z" fill="var(--geist-foreground)"></path>
  <path d="M 428.13 229.553 C 427.983 228.144 427.337 227.045 426.212 226.263 C 425.077 225.472 423.611 225.081 421.812 225.081 C 420.549 225.081 419.461 225.272 418.557 225.645 C 417.653 226.027 416.952 226.536 416.472 227.181 C 415.993 227.826 415.753 228.562 415.734 229.389 C 415.734 230.08 415.9 230.68 416.223 231.18 C 416.546 231.689 416.979 232.116 417.542 232.461 C 418.095 232.816 418.713 233.107 419.387 233.343 C 420.069 233.579 420.752 233.779 421.434 233.943 L 424.579 234.715 C 425.843 235.006 427.07 235.397 428.241 235.897 C 429.412 236.388 430.473 237.015 431.404 237.769 C 432.336 238.523 433.074 239.432 433.618 240.496 C 434.162 241.559 434.439 242.804 434.439 244.24 C 434.439 246.176 433.941 247.875 432.935 249.348 C 431.93 250.811 430.482 251.956 428.582 252.783 C 426.691 253.601 424.404 254.019 421.711 254.019 C 419.11 254.019 416.841 253.619 414.932 252.82 C 413.014 252.029 411.519 250.865 410.44 249.339 C 409.361 247.812 408.78 245.949 408.697 243.758 L 414.674 243.758 C 414.757 244.903 415.126 245.858 415.753 246.63 C 416.389 247.394 417.219 247.957 418.234 248.339 C 419.258 248.711 420.401 248.902 421.665 248.902 C 422.984 248.902 424.146 248.702 425.151 248.312 C 426.147 247.921 426.931 247.376 427.494 246.667 C 428.066 245.967 428.352 245.14 428.361 244.195 C 428.352 243.331 428.093 242.613 427.595 242.05 C 427.088 241.486 426.387 241.014 425.492 240.632 C 424.589 240.25 423.537 239.905 422.338 239.605 L 418.52 238.641 C 415.762 237.942 413.576 236.878 411.98 235.451 C 410.376 234.025 409.582 232.134 409.582 229.762 C 409.582 227.817 410.117 226.109 411.197 224.645 C 412.266 223.182 413.733 222.046 415.587 221.237 C 417.45 220.419 419.553 220.019 421.895 220.019 C 424.275 220.019 426.359 220.419 428.158 221.237 C 429.956 222.046 431.368 223.173 432.391 224.609 C 433.415 226.045 433.95 227.69 433.978 229.553 L 428.13 229.553 Z" fill="var(--geist-foreground)"></path>
  <path d="M 121.226 175.08 L 114.214 187.807 L 66.216 187.747 L 66.216 208.124 L 104.455 208.124 L 97.866 220.307 L 66.216 220.791 L 66.255 254.264 L 52.604 254.386 L 52.598 175.08 L 121.226 175.08 Z" fill="var(--geist-foreground)"></path>
</svg>